<svg width="314" height="117" viewBox="0 0 314 117" fill="none" xmlns="http://www.w3.org/2000/svg">
    <g filter="url(#filter0_d_32_973)">
        <path
            d="M9.024 93L9.024 25.8L19.296 25.8L48.672 74.856L43.296 74.856L72.192 25.8L82.464 25.8L82.56 93L70.752 93L70.656 44.328L73.152 44.328L48.576 85.32L43.008 85.32L18.048 44.328L20.928 44.328L20.928 93L9.024 93ZM170.801 93L201.041 25.8L213.329 25.8L243.665 93L230.609 93L204.593 32.424L209.585 32.424L183.665 93L170.801 93ZM184.721 77.448L188.081 67.656L224.369 67.656L227.729 77.448L184.721 77.448ZM282.666 93.96C277.418 93.96 272.586 93.128 268.17 91.464C263.818 89.736 260.01 87.336 256.746 84.264C253.482 81.128 250.954 77.448 249.162 73.224C247.37 69 246.474 64.392 246.474 59.4C246.474 54.408 247.37 49.8 249.162 45.576C250.954 41.352 253.482 37.704 256.746 34.632C260.074 31.496 263.946 29.096 268.362 27.432C272.778 25.704 277.61 24.84 282.858 24.84C288.554 24.84 293.674 25.768 298.218 27.624C302.826 29.48 306.698 32.2 309.834 35.784L301.962 43.464C299.338 40.84 296.49 38.92 293.418 37.704C290.41 36.424 287.082 35.784 283.434 35.784C279.914 35.784 276.65 36.36 273.642 37.512C270.634 38.664 268.042 40.296 265.866 42.408C263.69 44.52 261.994 47.016 260.778 49.896C259.626 52.776 259.05 55.944 259.05 59.4C259.05 62.792 259.626 65.928 260.778 68.808C261.994 71.688 263.69 74.216 265.866 76.392C268.042 78.504 270.602 80.136 273.546 81.288C276.49 82.44 279.754 83.016 283.338 83.016C286.666 83.016 289.866 82.504 292.938 81.48C296.074 80.392 299.05 78.6 301.866 76.104L308.97 85.416C305.45 88.232 301.354 90.376 296.682 91.848C292.074 93.256 287.402 93.96 282.666 93.96ZM297.162 83.784L297.162 58.632L308.97 58.632L308.97 85.416L297.162 83.784Z"
            fill="url(#paint0_linear_32_973)" />
    </g>
    <path
        d="M113 35L135 35C140.523 35 145 39.4772 145 45C145 50.5228 140.523 55 135 55L113 55L113 35Z"
        fill="#565656" />
    <path d="M111 63L130 63L119 75L111 84L111 63Z" fill="#565656" />
    <path
        d="M101.024 93L101.024 25.8L132.512 25.8C140.576 25.8 146.72 27.4 150.944 30.6C155.168 33.736 157.28 37.96 157.28 43.272C157.28 46.856 156.448 49.928 154.784 52.488C153.12 54.984 150.88 56.936 148.064 58.344C145.312 59.688 142.304 60.36 139.04 60.36L140.768 56.904C144.544 56.904 147.936 57.608 150.944 59.016C153.952 60.36 156.32 62.344 158.048 64.968C159.84 67.592 160.736 70.856 160.736 74.76C160.736 80.52 158.528 85 154.112 88.2C149.696 91.4 143.136 93 134.432 93L101.024 93ZM113.504 83.208L133.664 83.208C138.336 83.208 141.92 82.44 144.416 80.904C146.912 79.368 148.16 76.904 148.16 73.512C148.16 70.184 146.912 67.752 144.416 66.216C141.92 64.616 138.336 63.816 133.664 63.816L112.544 63.816L112.544 54.12L131.168 54.12C135.52 54.12 138.848 53.352 141.152 51.816C143.52 50.28 144.704 47.976 144.704 44.904C144.704 41.768 143.52 39.432 141.152 37.896C138.848 36.36 135.52 35.592 131.168 35.592L113.504 35.592L113.504 83.208Z"
        fill="url(#paint1_linear_32_973)" />
    <defs>
        <filter id="filter0_d_32_973" x="5.02405" y="24.84" width="308.81" height="77.12"
            filterUnits="userSpaceOnUse" color-interpolation-filters="sRGB">
            <feFlood flood-opacity="0" result="BackgroundImageFix" />
            <feColorMatrix in="SourceAlpha" type="matrix"
                values="0 0 0 0 0 0 0 0 0 0 0 0 0 0 0 0 0 0 127 0" result="hardAlpha" />
            <feOffset dy="4" />
            <feGaussianBlur stdDeviation="2" />
            <feComposite in2="hardAlpha" operator="out" />
            <feColorMatrix type="matrix" values="0 0 0 0 0 0 0 0 0 0 0 0 0 0 0 0 0 0 0.71 0" />
            <feBlend mode="normal" in2="BackgroundImageFix" result="effect1_dropShadow_32_973" />
            <feBlend mode="normal" in="SourceGraphic" in2="effect1_dropShadow_32_973"
                result="shape" />
        </filter>
        <linearGradient id="paint0_linear_32_973" x1="6.54848" y1="66.1098" x2="316.996"
            y2="63.7064" gradientUnits="userSpaceOnUse">
            <stop stop-color="#BF953F" />
            <stop offset="1" stop-color="#FCF6BA" />
        </linearGradient>
        <linearGradient id="paint1_linear_32_973" x1="129" y1="26.5" x2="129" y2="117"
            gradientUnits="userSpaceOnUse">
            <stop stop-color="#979797" />
            <stop offset="1" stop-color="#0D0C0C" />
        </linearGradient>
    </defs>
</svg>
