<svg width="200" height="251" viewBox="0 0 200 251" fill="none" xmlns="http://www.w3.org/2000/svg">
    <path d="M177.083 48.6333V31.25C177.083 29.0399 176.205 26.9202 174.643 25.3574C173.08 23.7946 170.96 22.9167 168.75 22.9167H133.333M137.5 177.083H168.75C170.96 177.083 173.08 176.205 174.643 174.643C176.205 173.08 177.083 170.96 177.083 168.75V143.4M22.9167 151.733V168.75C22.9167 170.96 23.7946 173.08 25.3574 174.643C26.9202 176.205 29.0399 177.083 31.25 177.083H71.6167M71.6167 22.9167H31.25C29.0399 22.9167 26.9202 23.7946 25.3574 25.3574C23.7946 26.9202 22.9167 29.0399 22.9167 31.25V52.8M142.712 79.9083L86.3792 46.9125M150.025 102.467L78.2208 61.0083M141.758 116.854L69.9583 75.3917M180.325 63.9458L95.1333 14.7542C93.4597 13.788 91.4708 13.5261 89.604 14.0262C87.7373 14.5263 86.1457 15.7473 85.1792 17.4208L21.4292 127.871C20.4628 129.545 20.2008 131.535 20.7008 133.402C21.2009 135.269 22.4221 136.862 24.0958 137.829L109.283 187.021C110.112 187.5 111.027 187.811 111.977 187.936C112.926 188.061 113.89 187.998 114.815 187.751C115.74 187.503 116.607 187.076 117.366 186.493C118.126 185.91 118.763 185.183 119.242 184.354L182.996 73.9042C183.962 72.2299 184.224 70.2403 183.724 68.3729C183.224 66.5055 181.999 64.9131 180.325 63.9458Z" stroke="black" stroke-width="3" stroke-linecap="round" stroke-linejoin="round"/>
    <path d="M45.3342 228.455V243H43.3171L35.9237 232.332H35.7887V243H33.5941V228.455H35.6254L43.0259 239.136H43.1609V228.455H45.3342ZM48.5355 243V228.455H57.5554V230.344H50.7301V234.776H56.9091V236.658H50.7301V243H48.5355ZM72.3352 233.185H70.1193C70.0341 232.711 69.8755 232.295 69.6435 231.935C69.4115 231.575 69.1274 231.269 68.7912 231.018C68.455 230.768 68.0786 230.578 67.6619 230.45C67.25 230.322 66.812 230.259 66.348 230.259C65.5099 230.259 64.7595 230.469 64.0966 230.891C63.4384 231.312 62.9176 231.93 62.5341 232.744C62.1553 233.559 61.9659 234.553 61.9659 235.727C61.9659 236.911 62.1553 237.91 62.5341 238.724C62.9176 239.539 63.4408 240.154 64.1037 240.571C64.7666 240.988 65.5123 241.196 66.3409 241.196C66.8002 241.196 67.2358 241.134 67.6477 241.011C68.0644 240.884 68.4408 240.696 68.777 240.45C69.1132 240.204 69.3973 239.903 69.6293 239.548C69.866 239.188 70.0294 238.777 70.1193 238.312L72.3352 238.32C72.2169 239.035 71.9872 239.693 71.6463 240.294C71.3101 240.891 70.8769 241.407 70.3466 241.842C69.821 242.273 69.2197 242.607 68.5426 242.844C67.8655 243.08 67.1269 243.199 66.3267 243.199C65.0672 243.199 63.9451 242.901 62.9602 242.304C61.9754 241.703 61.1989 240.843 60.6307 239.726C60.0672 238.608 59.7855 237.276 59.7855 235.727C59.7855 234.174 60.0696 232.841 60.6378 231.729C61.206 230.611 61.9825 229.754 62.9673 229.158C63.9522 228.556 65.072 228.256 66.3267 228.256C67.0985 228.256 67.8182 228.367 68.4858 228.589C69.1581 228.807 69.7618 229.129 70.2969 229.555C70.8319 229.977 71.2746 230.493 71.625 231.104C71.9754 231.71 72.2121 232.403 72.3352 233.185ZM88.3763 243.1C87.6563 243.1 87.0163 243 86.4563 242.8C85.9096 242.587 85.4696 242.233 85.1363 241.74C84.8163 241.233 84.6363 240.533 84.5963 239.64L84.2763 232.68H85.8963L86.2163 239.28C86.2563 239.907 86.3696 240.38 86.5563 240.7C86.7429 241.007 87.0029 241.213 87.3363 241.32C87.6829 241.413 88.0963 241.46 88.5763 241.46C88.8563 241.46 89.0563 241.54 89.1763 241.7C89.3096 241.847 89.3763 242.027 89.3763 242.24C89.3763 242.453 89.2829 242.653 89.0963 242.84C88.9096 243.013 88.6696 243.1 88.3763 243.1ZM85.3563 240.9C84.5963 241.14 83.8563 241.26 83.1363 241.26C82.4163 241.26 81.7629 241.153 81.1763 240.94C80.5896 240.727 80.1229 240.42 79.7763 240.02C79.4296 239.607 79.2563 239.113 79.2563 238.54C79.2563 237.98 79.3963 237.453 79.6763 236.96C79.9696 236.467 80.3629 236.027 80.8563 235.64C81.3629 235.253 81.9429 234.933 82.5963 234.68C83.2629 234.413 83.9696 234.233 84.7163 234.14L84.9963 235.82C84.3296 235.847 83.7363 235.94 83.2163 236.1C82.7096 236.247 82.2763 236.44 81.9163 236.68C81.5696 236.92 81.3029 237.18 81.1163 237.46C80.9296 237.74 80.8363 238.013 80.8363 238.28C80.8363 238.573 80.9429 238.813 81.1562 239C81.3696 239.187 81.6429 239.333 81.9763 239.44C82.3096 239.533 82.6763 239.593 83.0763 239.62C83.4763 239.633 83.8629 239.62 84.2363 239.58C84.6096 239.527 84.9296 239.453 85.1963 239.36L85.3563 240.9ZM84.9363 230.38C84.6563 230.38 84.4163 230.287 84.2163 230.1C84.0296 229.9 83.9362 229.667 83.9362 229.4C83.9362 229.133 84.0296 228.9 84.2163 228.7C84.4163 228.5 84.6563 228.4 84.9363 228.4C85.2029 228.4 85.4296 228.5 85.6163 228.7C85.8163 228.9 85.9163 229.133 85.9163 229.4C85.9163 229.667 85.8163 229.9 85.6163 230.1C85.4296 230.287 85.2029 230.38 84.9363 230.38ZM82.1963 230.38C81.9163 230.38 81.6763 230.287 81.4763 230.1C81.2896 229.9 81.1963 229.667 81.1963 229.4C81.1963 229.133 81.2896 228.9 81.4763 228.7C81.6763 228.5 81.9163 228.4 82.1963 228.4C82.4629 228.4 82.6896 228.5 82.8763 228.7C83.0763 228.9 83.1763 229.133 83.1763 229.4C83.1763 229.667 83.0763 229.9 82.8763 230.1C82.6896 230.287 82.4629 230.38 82.1963 230.38ZM88.3828 243.1L88.5828 241.46C88.9161 241.46 89.2828 241.46 89.6828 241.46C90.0961 241.447 90.5095 241.433 90.9228 241.42C91.3495 241.407 91.7428 241.38 92.1028 241.34C92.4628 241.287 92.7628 241.22 93.0028 241.14C93.4828 240.967 93.8561 240.753 94.1228 240.5C94.3895 240.233 94.5761 239.887 94.6828 239.46C94.8028 239.02 94.8628 238.46 94.8628 237.78C94.8628 237.22 94.7895 236.7 94.6428 236.22C94.4961 235.74 94.2895 235.353 94.0228 235.06C93.7561 234.767 93.4361 234.62 93.0628 234.62C92.7561 234.62 92.4761 234.74 92.2228 234.98C91.9828 235.207 91.7895 235.5 91.6428 235.86C91.5095 236.22 91.4428 236.58 91.4428 236.94C91.4428 237.22 91.4961 237.46 91.6028 237.66C91.7228 237.86 91.9161 238.02 92.1828 238.14C92.4495 238.247 92.7961 238.3 93.2228 238.3C93.6095 238.3 93.9961 238.26 94.3828 238.18C94.7828 238.1 95.1228 237.993 95.4028 237.86L95.4828 239.26C95.2695 239.407 95.0295 239.527 94.7628 239.62C94.4961 239.713 94.2161 239.78 93.9228 239.82C93.6295 239.86 93.3361 239.88 93.0428 239.88C92.3628 239.88 91.7828 239.773 91.3028 239.56C90.8361 239.333 90.4761 239.033 90.2228 238.66C89.9828 238.273 89.8628 237.833 89.8628 237.34C89.8628 236.833 89.9428 236.327 90.1028 235.82C90.2628 235.3 90.4895 234.827 90.7828 234.4C91.0761 233.973 91.4295 233.633 91.8428 233.38C92.2561 233.113 92.7161 232.98 93.2228 232.98C93.9428 232.98 94.5361 233.213 95.0028 233.68C95.4828 234.147 95.8361 234.76 96.0628 235.52C96.3028 236.267 96.4228 237.06 96.4228 237.9C96.4228 238.9 96.2495 239.76 95.9028 240.48C95.5695 241.187 95.0095 241.773 94.2228 242.24C93.9161 242.413 93.5428 242.56 93.1028 242.68C92.6761 242.787 92.2028 242.873 91.6828 242.94C91.1761 243.007 90.6428 243.047 90.0828 243.06C89.5228 243.087 88.9561 243.1 88.3828 243.1ZM94.2428 230.92C93.9628 230.92 93.7228 230.827 93.5228 230.64C93.3361 230.44 93.2428 230.207 93.2428 229.94C93.2428 229.673 93.3361 229.44 93.5228 229.24C93.7228 229.04 93.9628 228.94 94.2428 228.94C94.5095 228.94 94.7361 229.04 94.9228 229.24C95.1228 229.44 95.2228 229.673 95.2228 229.94C95.2228 230.207 95.1228 230.44 94.9228 230.64C94.7361 230.827 94.5095 230.92 94.2428 230.92ZM91.5028 230.92C91.2228 230.92 90.9828 230.827 90.7828 230.64C90.5961 230.44 90.5028 230.207 90.5028 229.94C90.5028 229.673 90.5961 229.44 90.7828 229.24C90.9828 229.04 91.2228 228.94 91.5028 228.94C91.7695 228.94 91.9961 229.04 92.1828 229.24C92.3828 229.44 92.4828 229.673 92.4828 229.94C92.4828 230.207 92.3828 230.44 92.1828 230.64C91.9961 230.827 91.7695 230.92 91.5028 230.92ZM103.148 243.1C102.081 243.1 101.261 242.98 100.688 242.74C100.128 242.5 99.7415 242.127 99.5281 241.62C99.3148 241.113 99.1948 240.46 99.1681 239.66L98.7681 228.72H100.408L100.808 239.02C100.835 239.673 100.895 240.18 100.988 240.54C101.095 240.887 101.321 241.127 101.668 241.26C102.028 241.393 102.588 241.46 103.348 241.46C103.628 241.46 103.828 241.54 103.948 241.7C104.081 241.847 104.148 242.027 104.148 242.24C104.148 242.453 104.055 242.653 103.868 242.84C103.681 243.013 103.441 243.1 103.148 243.1ZM117.348 243.1C117.002 243.1 116.562 243.067 116.028 243C115.508 242.92 114.975 242.787 114.428 242.6C113.895 242.413 113.442 242.153 113.068 241.82L114.708 241C115.175 241.187 115.655 241.313 116.148 241.38C116.655 241.433 117.122 241.46 117.548 241.46C117.828 241.46 118.028 241.54 118.148 241.7C118.282 241.847 118.348 242.027 118.348 242.24C118.348 242.453 118.255 242.653 118.068 242.84C117.882 243.013 117.642 243.1 117.348 243.1ZM103.148 243.1L103.348 241.46H107.528C108.688 241.46 109.688 241.413 110.528 241.32C111.382 241.213 112.082 241.06 112.628 240.86C113.175 240.66 113.582 240.407 113.848 240.1C114.115 239.78 114.248 239.407 114.248 238.98C114.248 238.753 114.175 238.507 114.028 238.24C113.882 237.973 113.655 237.747 113.348 237.56C113.042 237.36 112.635 237.26 112.128 237.26C111.488 237.26 110.848 237.427 110.208 237.76C109.582 238.093 108.982 238.513 108.408 239.02C107.848 239.513 107.348 240.02 106.908 240.54C106.468 241.06 106.115 241.513 105.848 241.9L104.108 241.84C104.535 241.147 105.042 240.44 105.628 239.72C106.228 238.987 106.882 238.313 107.588 237.7C108.308 237.073 109.062 236.573 109.848 236.2C110.635 235.813 111.435 235.62 112.248 235.62C112.982 235.62 113.608 235.773 114.128 236.08C114.662 236.373 115.068 236.773 115.348 237.28C115.642 237.787 115.788 238.36 115.788 239C115.788 239.627 115.562 240.26 115.108 240.9C114.655 241.527 113.875 242.02 112.768 242.38C112.208 242.567 111.568 242.713 110.848 242.82C110.128 242.927 109.308 243 108.388 243.04C107.468 243.08 106.422 243.1 105.248 243.1H103.148ZM105.048 241.12L104.648 228.72H106.268L106.668 239.72L105.048 241.12ZM117.348 243.1L117.548 241.46C118.201 241.46 118.721 241.42 119.108 241.34C119.494 241.26 119.774 241.1 119.948 240.86C120.121 240.607 120.208 240.233 120.208 239.74C120.208 239.407 120.154 239.013 120.048 238.56C119.941 238.093 119.801 237.6 119.628 237.08C119.454 236.56 119.268 236.047 119.068 235.54L120.688 234.94C120.861 235.367 121.021 235.853 121.168 236.4C121.328 236.947 121.461 237.487 121.568 238.02C121.674 238.553 121.728 239.02 121.728 239.42C121.728 239.953 121.668 240.427 121.548 240.84C121.441 241.24 121.274 241.587 121.048 241.88C120.821 242.16 120.528 242.393 120.168 242.58C119.821 242.753 119.414 242.887 118.948 242.98C118.481 243.06 117.948 243.1 117.348 243.1ZM119.488 246.82C119.208 246.82 118.968 246.72 118.768 246.52C118.581 246.333 118.488 246.107 118.488 245.84C118.488 245.573 118.581 245.34 118.768 245.14C118.968 244.94 119.208 244.84 119.488 244.84C119.754 244.84 119.981 244.94 120.168 245.14C120.368 245.34 120.468 245.573 120.468 245.84C120.468 246.107 120.368 246.333 120.168 246.52C119.981 246.72 119.754 246.82 119.488 246.82ZM141.012 243.1C140.438 243.1 139.858 243.06 139.272 242.98C138.698 242.9 138.165 242.707 137.672 242.4C137.178 242.093 136.772 241.62 136.452 240.98C136.145 240.327 135.972 239.433 135.932 238.3L137.212 237.62C137.278 238.513 137.425 239.22 137.652 239.74C137.892 240.247 138.192 240.627 138.552 240.88C138.912 241.12 139.318 241.28 139.772 241.36C140.225 241.427 140.698 241.46 141.192 241.46C141.472 241.46 141.672 241.54 141.792 241.7C141.925 241.847 141.992 242.027 141.992 242.24C141.992 242.453 141.898 242.653 141.712 242.84C141.538 243.013 141.305 243.1 141.012 243.1ZM135.212 250.88C134.278 250.88 133.385 250.773 132.532 250.56C131.692 250.347 130.945 250.013 130.292 249.56C129.652 249.12 129.145 248.56 128.772 247.88C128.398 247.2 128.212 246.4 128.212 245.48C128.212 244.707 128.325 243.967 128.552 243.26C128.778 242.567 129.105 241.913 129.532 241.3C129.972 240.673 130.505 240.1 131.132 239.58C131.758 239.06 132.472 238.6 133.272 238.2C134.072 237.787 134.945 237.44 135.892 237.16L135.672 237.42C135.325 237.313 134.972 237.2 134.612 237.08C134.252 236.947 133.878 236.827 133.492 236.72C133.105 236.6 132.692 236.507 132.252 236.44C131.812 236.373 131.338 236.34 130.832 236.34C130.432 236.34 130.078 236.373 129.772 236.44C129.478 236.507 129.198 236.573 128.932 236.64L128.652 235.16C128.998 235.013 129.385 234.9 129.812 234.82C130.252 234.727 130.692 234.68 131.132 234.68C131.745 234.68 132.292 234.74 132.772 234.86C133.252 234.967 133.705 235.1 134.132 235.26C134.572 235.42 135.032 235.587 135.512 235.76C135.992 235.92 136.525 236.06 137.112 236.18C137.712 236.287 138.418 236.347 139.232 236.36H139.412L139.452 238C138.812 238 138.132 238.073 137.412 238.22C136.692 238.367 135.972 238.58 135.252 238.86C134.545 239.14 133.865 239.487 133.212 239.9C132.558 240.313 131.978 240.793 131.472 241.34C130.978 241.873 130.585 242.467 130.292 243.12C129.998 243.787 129.852 244.507 129.852 245.28C129.852 245.973 129.998 246.567 130.292 247.06C130.585 247.567 130.985 247.98 131.492 248.3C132.012 248.62 132.605 248.853 133.272 249C133.952 249.147 134.665 249.22 135.412 249.22C136.065 249.22 136.732 249.147 137.412 249C138.105 248.867 138.778 248.673 139.432 248.42L139.992 249.78C139.218 250.153 138.425 250.427 137.612 250.6C136.798 250.787 135.998 250.88 135.212 250.88ZM141 243.1L141.2 241.46C141.627 241.46 141.973 241.433 142.24 241.38C142.507 241.313 142.727 241.16 142.9 240.92C143.087 240.667 143.26 240.273 143.42 239.74C143.58 239.207 143.767 238.46 143.98 237.5L145.48 237.92C145.4 238.253 145.307 238.653 145.2 239.12C145.093 239.587 145.04 240.013 145.04 240.4C145.04 240.613 145.093 240.8 145.2 240.96C145.307 241.12 145.487 241.247 145.74 241.34C146.007 241.42 146.36 241.46 146.8 241.46C147.2 241.46 147.527 241.427 147.78 241.36C148.033 241.293 148.24 241.133 148.4 240.88C148.573 240.627 148.727 240.22 148.86 239.66C148.993 239.1 149.133 238.333 149.28 237.36L150.8 237.64C150.76 237.88 150.713 238.173 150.66 238.52C150.607 238.867 150.553 239.213 150.5 239.56C150.46 239.893 150.44 240.173 150.44 240.4C150.44 240.587 150.48 240.767 150.56 240.94C150.653 241.1 150.827 241.227 151.08 241.32C151.347 241.413 151.74 241.46 152.26 241.46C152.927 241.46 153.407 241.32 153.7 241.04C154.007 240.76 154.16 240.333 154.16 239.76C154.16 239.453 154.153 239.133 154.14 238.8C154.127 238.453 154.1 238.073 154.06 237.66C154.033 237.233 153.987 236.747 153.92 236.2L155.38 236.1C155.46 237.18 155.547 238.067 155.64 238.76C155.747 239.453 155.893 240 156.08 240.4C156.28 240.787 156.547 241.06 156.88 241.22C157.213 241.38 157.653 241.46 158.2 241.46C158.48 241.46 158.68 241.54 158.8 241.7C158.933 241.847 159 242.027 159 242.24C159 242.453 158.907 242.653 158.72 242.84C158.533 243.013 158.293 243.1 158 243.1C157.547 243.1 157.14 243.04 156.78 242.92C156.433 242.787 156.127 242.613 155.86 242.4C155.607 242.173 155.393 241.92 155.22 241.64C155.06 241.347 154.947 241.04 154.88 240.72L155.24 240.84C155.093 241.44 154.86 241.907 154.54 242.24C154.233 242.56 153.867 242.787 153.44 242.92C153.013 243.04 152.56 243.1 152.08 243.1C151.493 243.1 151.013 243.027 150.64 242.88C150.267 242.733 149.973 242.513 149.76 242.22C149.56 241.913 149.427 241.527 149.36 241.06H150.04C149.787 241.633 149.52 242.067 149.24 242.36C148.96 242.653 148.613 242.853 148.2 242.96C147.787 243.053 147.24 243.1 146.56 243.1C146.227 243.1 145.867 243.047 145.48 242.94C145.107 242.833 144.78 242.627 144.5 242.32C144.22 242 144.053 241.527 144 240.9L144.6 240.78C144.373 241.46 144.093 241.967 143.76 242.3C143.44 242.62 143.053 242.833 142.6 242.94C142.147 243.047 141.613 243.1 141 243.1ZM157.992 243.1L158.192 241.46C158.566 241.46 158.879 241.38 159.132 241.22C159.386 241.06 159.632 240.793 159.872 240.42C160.112 240.047 160.372 239.547 160.652 238.92C161.039 238.067 161.419 237.42 161.792 236.98C162.179 236.54 162.559 236.24 162.932 236.08C163.319 235.92 163.699 235.84 164.072 235.84C164.526 235.84 164.946 235.96 165.332 236.2C165.719 236.427 166.059 236.733 166.352 237.12C166.646 237.507 166.872 237.933 167.032 238.4C167.206 238.853 167.292 239.307 167.292 239.76C167.292 240.56 167.152 241.2 166.872 241.68C166.592 242.147 166.232 242.487 165.792 242.7C165.366 242.9 164.919 243 164.452 243C164.039 243 163.506 242.92 162.852 242.76C162.212 242.6 161.399 242.193 160.412 241.54L161.192 240.28C161.846 240.693 162.432 240.98 162.952 241.14C163.486 241.287 163.926 241.36 164.272 241.36C164.659 241.36 164.966 241.307 165.192 241.2C165.419 241.08 165.586 240.913 165.692 240.7C165.799 240.487 165.852 240.247 165.852 239.98C165.852 239.593 165.759 239.207 165.572 238.82C165.386 238.433 165.146 238.113 164.852 237.86C164.572 237.607 164.272 237.48 163.952 237.48C163.712 237.48 163.479 237.547 163.252 237.68C163.026 237.813 162.792 238.06 162.552 238.42C162.312 238.78 162.039 239.3 161.732 239.98C161.412 240.7 161.106 241.273 160.812 241.7C160.532 242.113 160.246 242.42 159.952 242.62C159.659 242.82 159.352 242.947 159.032 243C158.726 243.067 158.379 243.1 157.992 243.1Z" fill="black"/>
</svg>
