<svg width="22" height="34" viewBox="0 0 22 34" fill="none" xmlns="http://www.w3.org/2000/svg">
    <path
        d="M3.33333 33.6666C2.41667 33.6666 1.63222 33.3405 0.98 32.6883C0.327777 32.0361 0.00111111 31.2511 0 30.3333V23.1666C0 21.1111 0.291667 19.1322 0.875 17.23C1.45833 15.3277 2.375 13.4316 3.625 11.5416C2.56944 11.2916 1.70167 10.7222 1.02167 9.83329C0.341667 8.9444 0.00111111 7.9444 0 6.83329V5.08329C0 3.74995 0.576667 2.63218 1.73 1.72995C2.88333 0.827731 4.08444 0.445509 5.33333 0.583287L20.1667 2.04162C20.6389 2.09718 21.0072 2.28495 21.2717 2.60495C21.5361 2.92495 21.6678 3.29273 21.6667 3.70829V8.66662C21.6667 9.08329 21.5211 9.45162 21.23 9.77162C20.9389 10.0916 20.5844 10.2788 20.1667 10.3333L18.6667 10.5C18.9722 11.5277 19.3333 12.4722 19.75 13.3333C20.1667 14.1944 20.6667 14.9305 21.25 15.5416C21.5556 15.875 21.7572 16.2638 21.855 16.7083C21.9528 17.1527 21.89 17.5694 21.6667 17.9583C21.4444 18.3472 21.1183 18.6111 20.6883 18.75C20.2583 18.8888 19.8761 18.8055 19.5417 18.5C18.4861 17.5833 17.6456 16.465 17.02 15.145C16.3944 13.825 15.8878 12.3744 15.5 10.7933L13.6667 10.96C13.8889 12.3488 14.3128 13.7516 14.9383 15.1683C15.5639 16.585 16.1956 17.8627 16.8333 19.0016C17.3333 19.8905 17.7083 20.8211 17.9583 21.7933C18.2083 22.7655 18.3333 23.7511 18.3333 24.75V30.3333C18.3333 31.25 18.0072 32.035 17.355 32.6883C16.7028 33.3416 15.9178 33.6677 15 33.6666H3.33333ZM3.33333 5.49995V6.83329C3.33333 7.33329 3.51389 7.73606 3.875 8.04162C4.23611 8.34718 4.66667 8.47218 5.16667 8.41662L18.3333 7.16662V5.16662L5.16667 3.91662C4.66667 3.86106 4.23611 3.98606 3.875 4.29162C3.51389 4.59718 3.33333 4.99995 3.33333 5.49995ZM3.33333 30.3333H15V24.75C15 24.0277 14.91 23.3194 14.73 22.625C14.55 21.9305 14.2789 21.2638 13.9167 20.625C13.0556 19.125 12.3056 17.5766 11.6667 15.98C11.0278 14.3833 10.5833 12.8205 10.3333 11.2916L7.83333 11.5L6.75 12.9166C5.63889 14.3888 4.79167 16.0072 4.20833 17.7716C3.625 19.5361 3.33333 21.3344 3.33333 23.1666V30.3333Z"
        fill="#FEFEFE" />
</svg>
